# xmcd
#
# Track frame offsets:
# 150
# 18969
# 35123
# 53647
# 70395
# 87249
# 99207
# 116908
# 137419
# 154138
#
# Disc length: 2309 seconds
#
#
# Revision: 2
# Processed by: cddbd v1.5.1PL2 Copyright (c) Steve Scherf et al.
# Submitted via: FreeRIP 2.944 
#
DISCID=7e09030a
DTITLE=Rodney Crowell - Let The Picture Paint Itself
DYEAR=1994
DGENRE=Country
TTITLE0=Let The Picture Paint Itself
TTITLE1=Give My Heart A Rest
TTITLE2=Stuff That Works
TTITLE3=Big Heart
TTITLE4=Loving You Makes Me Strong
TTITLE5=The Best Years Of Our Lives
TTITLE6=I Don't Fall In Love So Easy
TTITLE7=That Ol' Door
TTITLE8=The Rose Of Memphis
TTITLE9=Once In A While
EXTD=
EXTT0=
EXTT1=
EXTT2=
EXTT3=
EXTT4=
EXTT5=
EXTT6=
EXTT7=
EXTT8=
EXTT9=
PLAYORDER=
